<svg width="24" height="24" viewBox="0 0 24 24" fill="none" xmlns="http://www.w3.org/2000/svg">
<path fill-rule="evenodd" clip-rule="evenodd" d="M3.3959 12.6064C3.92058 13.3692 4.54046 14.1326 5.24909 14.8423C7.23147 16.8278 9.49406 18 12 18C14.5059 18 16.7685 16.8278 18.7509 14.8423C19.4595 14.1326 20.0794 13.3692 20.6041 12.6064C20.753 12.3899 20.8851 12.1865 21 12C20.8851 11.8135 20.753 11.6101 20.6041 11.3936C20.0794 10.6308 19.4595 9.86741 18.7509 9.15766C16.7685 7.17215 14.5059 6 12 6C9.49406 6 7.23147 7.17215 5.24909 9.15766C4.54046 9.86741 3.92058 10.6308 3.3959 11.3936C3.24698 11.6101 3.11491 11.8135 3 12C3.11491 12.1865 3.24698 12.3899 3.3959 12.6064ZM1.09678 11.6025C1.22563 11.3526 1.46747 10.9357 1.81981 10.4066C2.40296 9.53106 3.09103 8.65602 3.88334 7.8365C6.18953 5.4511 8.90185 4 12 4C15.0982 4 17.8105 5.4511 20.1167 7.8365C20.909 8.65602 21.597 9.53106 22.1802 10.4066C22.5325 10.9357 22.7744 11.3526 22.9032 11.6025C23.0323 11.8527 23.0323 12.1473 22.9032 12.3975C22.7744 12.6474 22.5325 13.0643 22.1802 13.5934C21.597 14.4689 20.909 15.344 20.1167 16.1635C17.8105 18.5489 15.0982 20 12 20C8.90185 20 6.18953 18.5489 3.88334 16.1635C3.09103 15.344 2.40296 14.4689 1.81981 13.5934C1.46747 13.0643 1.22563 12.6474 1.09678 12.3975C0.967742 12.1473 0.967742 11.8527 1.09678 11.6025ZM12 16C9.79086 16 8 14.2091 8 12C8 9.79086 9.79086 8 12 8C14.2091 8 16 9.79086 16 12C16 14.2091 14.2091 16 12 16ZM12 14C13.1046 14 14 13.1046 14 12C14 10.8954 13.1046 10 12 10C10.8954 10 10 10.8954 10 12C10 13.1046 10.8954 14 12 14Z" fill="#757575"/>
</svg>
