<svg width="131" height="44" viewBox="0 0 131 44" fill="none" xmlns="http://www.w3.org/2000/svg">
<path d="M4.05456 0.183933C4.89918 0.183933 5.63223 0.485909 6.25305 1.0892C6.87387 1.71003 7.18395 2.45151 7.18395 3.31365V37.4524C7.18395 38.3318 6.87387 39.0648 6.25305 39.6506C5.63223 40.2714 4.89918 40.5818 4.05456 40.5818H3.97704C3.13209 40.5818 2.39937 40.2714 1.77889 39.6506C1.15807 39.0648 0.847656 38.3318 0.847656 37.4524V3.31332C0.847656 2.45118 1.15807 1.7097 1.77889 1.08888C2.39937 0.48558 3.13209 0.183594 3.97704 0.183594H4.05456V0.183933Z" fill="#9DF4F4"/>
<path d="M27.5145 10.7871C31.6176 10.7871 35.1265 12.2445 38.0405 15.1581C40.9542 18.0722 42.4116 21.5811 42.4116 25.6841C42.4116 29.7879 40.9542 33.2968 38.0405 36.2101C35.1265 39.1241 31.6176 40.5811 27.5145 40.5811C23.4108 40.5811 19.9019 39.1245 16.9882 36.2101C14.0742 33.2964 12.6172 29.7876 12.6172 25.6841C12.6172 21.5807 14.0739 18.0722 16.9882 15.1581C19.9016 12.2445 23.4104 10.7871 27.5145 10.7871ZM27.5145 17.1753C25.1351 17.1753 23.1088 18.0118 21.4368 19.6839C19.7816 21.3566 18.9538 23.3825 18.9538 25.7613C18.9538 28.1239 19.7816 30.1411 21.4368 31.8135C23.1088 33.4862 25.1351 34.322 27.5145 34.322C29.8765 34.322 31.894 33.4862 33.5664 31.8135C35.2384 30.1411 36.0749 28.1239 36.0749 25.7613C36.0749 23.3822 35.2384 21.3566 33.5664 19.6839C31.8937 18.0118 29.8762 17.1753 27.5145 17.1753Z" fill="#9DF4F4"/>
<path d="M61.2645 10.7871C65.368 10.7871 68.8769 12.2445 71.7905 15.1581C74.7046 18.0722 76.1616 21.5811 76.1616 25.6841C76.1616 29.7879 74.7046 33.2968 71.7905 36.2101C68.8765 39.1241 65.3676 40.5811 61.2645 40.5811C57.1608 40.5811 53.6519 39.1245 50.7382 36.2101C47.8242 33.2964 46.3672 29.7876 46.3672 25.6841C46.3672 21.5807 47.8239 18.0722 50.7382 15.1581C53.6516 12.2445 57.1608 10.7871 61.2645 10.7871ZM61.2645 17.1753C58.8851 17.1753 56.8588 18.0118 55.1868 19.6839C53.5316 21.3566 52.7038 23.3825 52.7038 25.7613C52.7038 28.1239 53.5316 30.1411 55.1868 31.8135C56.8588 33.4862 58.8854 34.322 61.2645 34.322C63.6265 34.322 65.6437 33.4862 67.3164 31.8135C68.9888 30.1411 69.8249 28.1239 69.8249 25.7613C69.8249 23.3822 68.9888 21.3566 67.3164 19.6839C65.6437 18.0118 63.6262 17.1753 61.2645 17.1753Z" fill="#9DF4F4"/>
<path d="M98.8428 11.4858C100.308 11.9512 101.041 12.9516 101.041 14.4857V14.6152C101.041 15.6671 100.618 16.5032 99.7737 17.1237C99.1876 17.5376 98.5843 17.7445 97.9634 17.7445C97.6355 17.7445 97.2991 17.693 96.9547 17.5895C96.1097 17.3142 95.2388 17.1756 94.3427 17.1756C91.9632 17.1756 89.9369 18.0122 88.2649 19.6842C86.6097 21.3569 85.7819 23.3828 85.7819 25.7616C85.7819 28.1243 86.6097 30.1414 88.2649 31.8138C89.9369 33.4865 91.9635 34.3224 94.3427 34.3224C95.2388 34.3224 96.1097 34.1845 96.9547 33.9085C97.2823 33.8047 97.6096 33.7531 97.9375 33.7531C98.5755 33.7531 99.1876 33.9601 99.7737 34.3739C100.618 34.9948 101.041 35.8397 101.041 36.9088C101.041 38.4261 100.308 39.4265 98.8428 39.9088C97.3945 40.3573 95.8944 40.5811 94.3427 40.5811C90.2389 40.5811 86.73 39.1245 83.8163 36.2101C80.9023 33.2964 79.4453 29.7875 79.4453 25.6841C79.4453 21.5807 80.9023 18.0722 83.8163 15.1581C86.7304 12.2445 90.2392 10.7871 94.3427 10.7871C95.8944 10.7874 97.3945 11.0203 98.8428 11.4858Z" fill="#9DF4F4"/>
<path d="M108.645 0.183933C109.489 0.183933 110.222 0.485909 110.843 1.0892C111.464 1.71003 111.774 2.45151 111.774 3.31365V12.3139C113.136 11.2967 115.196 10.7881 117.955 10.7881C121.386 10.7881 124.326 12.0126 126.775 14.4605C129.223 16.909 130.447 19.8574 130.447 23.3057V37.4528C130.447 38.3321 130.137 39.0652 129.516 39.6509C128.93 40.2717 128.197 40.5822 127.318 40.5822H127.266C126.404 40.5822 125.662 40.2717 125.042 39.6509C124.421 39.0652 124.111 38.3321 124.111 37.4528V23.3057C124.111 21.5989 123.515 20.1416 122.326 18.9346C121.119 17.728 119.662 17.1241 117.955 17.1241C116.231 17.1241 114.765 17.728 113.558 18.9346C112.369 20.1416 111.774 21.5986 111.774 23.3057V37.4528C111.774 38.3321 111.463 39.0652 110.843 39.6509C110.222 40.2717 109.489 40.5822 108.644 40.5822H108.567C107.722 40.5822 106.989 40.2717 106.369 39.6509C105.748 39.0652 105.438 38.3321 105.438 37.4528V3.31332C105.438 2.45118 105.748 1.7097 106.369 1.08888C106.99 0.48558 107.722 0.183594 108.567 0.183594H108.645V0.183933Z" fill="#9DF4F4"/>
<path d="M60.3748 6.92773H57.4258V12.7416H60.3748V6.92773Z" fill="#9DF4F4"/>
<path d="M65.0931 6.92773H62.3125V12.7416H65.0931V6.92773Z" fill="#9DF4F4"/>
<path d="M60.3788 39.0586H57.4297V43.8614H60.3788V39.0586Z" fill="#9DF4F4"/>
<path d="M65.097 39.0586H62.3164V43.8614H65.097V39.0586Z" fill="#9DF4F4"/>
</svg>
